<svg width="316" height="162" viewBox="0 0 316 162" fill="none" xmlns="http://www.w3.org/2000/svg">
<rect x="124.868" y="28.1533" width="190.162" height="88.026" rx="10" transform="rotate(5.17884 124.868 28.1533)" fill="#92C4AC"/>
<ellipse rx="21.0518" ry="22.9017" transform="matrix(0.977097 -0.212796 0.195004 0.980802 164.883 120.167)" fill="#322525"/>
<ellipse cx="254.657" cy="128.304" rx="20.9919" ry="22.9633" transform="rotate(5.17884 254.657 128.304)" fill="#322525"/>
<ellipse rx="8.66749" ry="12.0882" transform="matrix(0.925164 0.379567 -0.362982 0.931796 164.826 120.802)" fill="#C4C4C4"/>
<ellipse rx="8.67649" ry="12.0763" transform="matrix(0.903362 0.428879 -0.410158 0.912014 254.6 128.939)" fill="#C4C4C4"/>
<path opacity="0.1" d="M295.312 83.3114L130.522 68.3757L133.285 37.8829L298.075 52.8187L295.312 83.3114Z" fill="black" stroke="#0AA76F" stroke-opacity="0.44" stroke-width="5"/>
<path d="M169.006 40.48L165.955 74.1491" stroke="#0AA76F" stroke-opacity="0.43" stroke-width="3"/>
<path d="M209.032 43.4672L205.98 77.1363" stroke="#0AA76F" stroke-opacity="0.43" stroke-width="3"/>
<path d="M247.27 45.652L244.218 79.3211" stroke="#0AA76F" stroke-opacity="0.43" stroke-width="3"/>
<path d="M300.084 102.958C299.859 105.44 297.227 107.598 293.759 107.284C290.291 106.97 288.09 104.373 288.314 101.892C288.539 99.4104 291.172 97.252 294.64 97.5663C298.107 97.8806 300.309 100.477 300.084 102.958Z" fill="#D55209" stroke="black" stroke-width="3"/>
<path d="M90.5951 84.8181C106.506 93.9461 107.467 92.7522 106.334 98.4139C104.95 105.334 97.8155 96.6454 94.7091 96.7197C83.5259 96.9871 77.1468 98.9709 76.684 83.5573C76.2212 68.1437 79.6986 63.9755 51.7016 58.2356C37.2559 55.2739 27.04 45.7044 20.5954 34.5885C17.9273 31.4399 16.1045 26.5978 14.8571 21.5245C12.823 15.0729 11.9092 8.73876 12.0359 3.40174C12.1567 -1.68929 12.0419 -0.567719 12.2968 3.48951L43.3191 13.9229C38.9411 41.7074 67.2641 48.1174 82.8297 61.0569C98.3953 73.9964 78.2094 77.7127 90.5951 84.8181Z" fill="url(#paint0_linear)"/>
<rect x="106.352" y="95.6474" width="20.9919" height="5.10296" transform="rotate(5.17884 106.352 95.6474)" fill="#B9C98D"/>
<path d="M185.284 89.1636L185.023 92.0463L182.975 91.8607L183.745 83.3643L187.135 83.6716C187.785 83.7304 188.348 83.903 188.824 84.1894C189.304 84.4722 189.661 84.8477 189.893 85.3158C190.129 85.7805 190.222 86.2929 190.171 86.8531C190.096 87.6817 189.738 88.318 189.098 88.7621C188.462 89.2025 187.626 89.3759 186.592 89.2821L185.284 89.1636ZM185.428 87.5822L186.77 87.7039C187.167 87.7398 187.477 87.6679 187.701 87.4882C187.93 87.3089 188.06 87.0383 188.093 86.6765C188.129 86.2797 188.05 85.9529 187.858 85.6962C187.666 85.4395 187.385 85.2925 187.015 85.2551L185.65 85.1313L185.428 87.5822ZM193.632 92.9442C192.663 92.8564 191.905 92.4975 191.358 91.8674C190.812 91.2335 190.58 90.4535 190.664 89.5277L190.679 89.3643C190.738 88.7185 190.908 88.1593 191.19 87.6867C191.476 87.2145 191.861 86.865 192.344 86.6382C192.828 86.4075 193.385 86.3207 194.015 86.3778C194.902 86.4582 195.577 86.7979 196.041 87.3968C196.504 87.9919 196.692 88.7816 196.603 89.7658L196.533 90.5303L192.623 90.1759C192.661 90.5363 192.79 90.8283 193.009 91.0522C193.228 91.276 193.526 91.405 193.903 91.4392C194.526 91.4956 195.032 91.3218 195.421 90.9178L196.224 92.0613C195.948 92.3776 195.575 92.6164 195.106 92.7778C194.64 92.9356 194.149 92.9911 193.632 92.9442ZM193.866 87.894C193.29 87.8418 192.913 88.192 192.735 88.9446L194.719 89.1244L194.733 88.9727C194.769 88.6583 194.712 88.4079 194.56 88.2216C194.408 88.0314 194.177 87.9222 193.866 87.894ZM200.144 93.5345C199.175 93.4467 198.417 93.0877 197.871 92.4577C197.324 91.8237 197.093 91.0438 197.177 90.1179L197.191 89.9545C197.25 89.3087 197.42 88.7495 197.702 88.277C197.988 87.8048 198.373 87.4553 198.856 87.2284C199.34 86.9977 199.897 86.9109 200.527 86.968C201.414 87.0484 202.09 87.3881 202.553 87.9871C203.017 88.5822 203.204 89.3718 203.115 90.3561L203.046 91.1205L199.136 90.7661C199.174 91.1265 199.302 91.4186 199.521 91.6424C199.74 91.8662 200.038 91.9952 200.416 92.0294C201.038 92.0858 201.544 91.912 201.934 91.5081L202.736 92.6516C202.46 92.9678 202.088 93.2066 201.618 93.368C201.153 93.5259 200.661 93.5814 200.144 93.5345ZM200.378 88.4842C199.802 88.432 199.425 88.7822 199.247 89.5349L201.231 89.7147L201.245 89.563C201.282 89.2486 201.224 88.9982 201.072 88.8119C200.921 88.6216 200.689 88.5124 200.378 88.4842ZM209.756 91.1521C209.667 92.1325 209.374 92.8963 208.877 93.4435C208.385 93.9872 207.763 94.225 207.012 94.157C206.433 94.1044 205.975 93.8492 205.64 93.3913L205.373 96.3382L203.407 96.16L204.199 87.4185L206.037 87.5851L206.043 88.1739C206.462 87.7413 206.979 87.5528 207.594 87.6085C208.372 87.6791 208.951 88.0218 209.331 88.6367C209.711 89.2477 209.855 90.055 209.764 91.0587L209.756 91.1521ZM207.8 90.8513C207.902 89.7309 207.626 89.1411 206.972 89.0819C206.505 89.0395 206.179 89.1786 205.993 89.4991L205.768 91.985C205.907 92.3506 206.206 92.5543 206.665 92.5959C207.292 92.6526 207.664 92.1411 207.781 91.0614L207.8 90.8513ZM210.437 94.3497L211.207 85.8532L214.259 86.1299C215.352 86.2289 216.164 86.5046 216.696 86.9567C217.231 87.4093 217.465 88.0168 217.396 88.7793C217.356 89.2189 217.221 89.5851 216.99 89.878C216.76 90.1709 216.441 90.3735 216.035 90.4857C216.468 90.6426 216.788 90.8913 216.997 91.2318C217.205 91.5723 217.289 91.9721 217.247 92.4312C217.172 93.2637 216.85 93.8661 216.283 94.2383C215.72 94.6069 214.921 94.7483 213.885 94.6622L210.437 94.3497ZM212.812 90.9232L212.628 92.9597L213.97 93.0814C214.339 93.1149 214.631 93.057 214.845 92.9077C215.058 92.7545 215.179 92.5242 215.207 92.2169C215.271 91.5089 214.952 91.121 214.248 91.0533L212.812 90.9232ZM212.934 89.581L214.002 89.6778C214.45 89.7145 214.776 89.6617 214.981 89.5194C215.186 89.3772 215.303 89.1505 215.331 88.8393C215.363 88.4814 215.284 88.2153 215.091 88.041C214.9 87.8628 214.574 87.7529 214.115 87.7113L213.112 87.6203L212.934 89.581ZM221.883 94.6988C221.419 95.194 220.833 95.4096 220.125 95.3454C219.432 95.2826 218.925 95.0347 218.603 94.6015C218.286 94.1649 218.162 93.5692 218.23 92.8145L218.601 88.7238L220.567 88.902L220.196 93.0044C220.147 93.5451 220.385 93.8393 220.91 93.8869C221.361 93.9278 221.697 93.7954 221.917 93.4898L222.318 89.0607L224.296 89.24L223.724 95.554L221.88 95.3868L221.883 94.6988ZM228.273 94.1777C228.288 94.0104 228.213 93.8683 228.047 93.7513C227.881 93.6343 227.558 93.4991 227.078 93.3457C226.597 93.1924 226.206 93.0137 225.902 92.8097C225.6 92.6018 225.376 92.3639 225.232 92.0959C225.087 91.8278 225.03 91.5304 225.06 91.2036C225.112 90.624 225.395 90.1691 225.907 89.839C226.42 89.505 227.063 89.3731 227.837 89.4433C228.67 89.5187 229.322 89.7681 229.793 90.1913C230.265 90.6144 230.473 91.1334 230.417 91.748L228.445 91.5693C228.491 91.0635 228.247 90.7865 227.714 90.7382C227.508 90.7195 227.329 90.7622 227.179 90.8662C227.029 90.9663 226.946 91.102 226.93 91.2732C226.914 91.4482 226.987 91.598 227.148 91.7224C227.31 91.8469 227.574 91.961 227.941 92.0649C228.312 92.1691 228.635 92.2827 228.91 92.4057C229.83 92.8185 230.251 93.4471 230.175 94.2913C230.123 94.867 229.823 95.3125 229.277 95.6278C228.735 95.9434 228.057 96.0643 227.244 95.9907C226.703 95.9416 226.23 95.8007 225.823 95.5677C225.417 95.3348 225.11 95.0403 224.903 94.6842C224.696 94.3281 224.609 93.9653 224.643 93.5957L226.481 93.7623C226.462 94.0548 226.54 94.2776 226.715 94.4306C226.889 94.5798 227.123 94.6677 227.414 94.6941C227.683 94.7184 227.888 94.6821 228.03 94.5852C228.176 94.4886 228.257 94.3528 228.273 94.1777Z" fill="black"/>
<defs>
<linearGradient id="paint0_linear" x1="137.924" y1="98.715" x2="38.6765" y2="22.4394" gradientUnits="userSpaceOnUse">
<stop stop-color="#181414" stop-opacity="0.33"/>
<stop offset="1" stop-color="#C4C4C4" stop-opacity="0"/>
</linearGradient>
</defs>
</svg>
