<svg width="327" height="57" viewBox="0 0 327 57" fill="none" xmlns="http://www.w3.org/2000/svg">
<path d="M0 9C0 4.02944 4.02944 0 9 0H318C322.971 0 327 4.02944 327 9V48C327 52.9706 322.971 57 318 57H9C4.02943 57 0 52.9706 0 48V9Z" fill="#483B40" fill-opacity="0.55"/>
<path d="M20.2784 34H27.642V32.4886H22.0341V28.9261H27.1932V27.4205H22.0341V23.875H27.5739V22.3636H20.2784V34ZM29.9427 34H31.6415V28.6193C31.6415 27.4432 32.4654 26.625 33.4313 26.625C34.3745 26.625 35.0279 27.25 35.0279 28.1989V34H36.7211V28.4375C36.7211 27.3864 37.3631 26.625 38.4711 26.625C39.3688 26.625 40.1074 27.125 40.1074 28.3068V34H41.8063V28.1477C41.8063 26.1534 40.6927 25.1591 39.1131 25.1591C37.8574 25.1591 36.9143 25.7614 36.4938 26.6932H36.4029C36.0222 25.7386 35.2211 25.1591 34.0563 25.1591C32.9029 25.1591 32.0449 25.733 31.6813 26.6932H31.5734V25.2727H29.9427V34ZM46.7831 34.1932C48.2262 34.1932 49.0387 33.4602 49.3626 32.8068H49.4308V34H51.0899V28.2045C51.0899 25.6648 49.0899 25.1591 47.7035 25.1591C46.124 25.1591 44.6694 25.7955 44.1012 27.3864L45.6978 27.75C45.9478 27.1307 46.5842 26.5341 47.7262 26.5341C48.8228 26.5341 49.3853 27.108 49.3853 28.0966V28.1364C49.3853 28.7557 48.749 28.7443 47.1808 28.9261C45.5274 29.1193 43.8342 29.5511 43.8342 31.5341C43.8342 33.25 45.124 34.1932 46.7831 34.1932ZM47.1524 32.8295C46.1922 32.8295 45.499 32.3977 45.499 31.5568C45.499 30.6477 46.3058 30.3239 47.2887 30.1932C47.8399 30.1193 49.1467 29.9716 49.391 29.7273V30.8523C49.391 31.8864 48.5672 32.8295 47.1524 32.8295ZM53.5127 34H55.2115V25.2727H53.5127V34ZM54.3706 23.9261C54.9559 23.9261 55.4445 23.4716 55.4445 22.9148C55.4445 22.358 54.9559 21.8977 54.3706 21.8977C53.7797 21.8977 53.2968 22.358 53.2968 22.9148C53.2968 23.4716 53.7797 23.9261 54.3706 23.9261ZM59.3559 22.3636H57.657V34H59.3559V22.3636Z" fill="white" fill-opacity="0.78"/>
</svg>
