<svg width="324" height="66" viewBox="0 0 324 66" fill="none" xmlns="http://www.w3.org/2000/svg">
<rect y="12" width="316" height="54" rx="5" fill="#434646"/>
<rect x="8" width="316" height="54" rx="5" fill="#9588C9"/>
<path d="M116.643 37H128.748V33.7038H120.641V18.0909H116.643V37ZM148.296 27.5455C148.296 21.3594 144.455 17.8324 139.441 17.8324C134.4 17.8324 130.587 21.3594 130.587 27.5455C130.587 33.7038 134.4 37.2585 139.441 37.2585C144.455 37.2585 148.296 33.7315 148.296 27.5455ZM144.242 27.5455C144.242 31.5526 142.34 33.7223 139.441 33.7223C136.533 33.7223 134.64 31.5526 134.64 27.5455C134.64 23.5384 136.533 21.3686 139.441 21.3686C142.34 21.3686 144.242 23.5384 144.242 27.5455ZM164.055 24.2031H168.118C167.601 20.4638 164.305 17.8324 160.03 17.8324C155.035 17.8324 151.185 21.4332 151.185 27.5639C151.185 33.5469 154.785 37.2585 160.113 37.2585C164.886 37.2585 168.293 34.2393 168.293 29.2628V26.8807H160.381V29.8906H164.443C164.388 32.2358 162.79 33.7223 160.131 33.7223C157.131 33.7223 155.238 31.4787 155.238 27.527C155.238 23.5938 157.204 21.3686 160.094 21.3686C162.153 21.3686 163.548 22.4304 164.055 24.2031ZM175.554 18.0909H171.556V37H175.554V18.0909ZM194.919 18.0909H190.94V29.983H190.774L182.612 18.0909H179.103V37H183.101V25.0987H183.24L191.466 37H194.919V18.0909Z" fill="#F0F0F0"/>
</svg>
